<svg xmlns="http://www.w3.org/2000/svg" viewBox="0 0 24 24" fill="none" stroke="currentColor" stroke-width="2" stroke-linecap="round" stroke-linejoin="round">
  <!-- Book/Learning icon -->
  <path d="M4 19.5A2.5 2.5 0 0 1 6.5 17H20"/>
  <path d="M6.5 2H20v20H6.5A2.5 2.5 0 0 1 4 19.5v-15A2.5 2.5 0 0 1 6.5 2z"/>
  
  <!-- Digital learning elements -->
  <circle cx="12" cy="8" r="2" stroke-width="1.5" opacity="0.8"/>
  <path d="M10 12h4" stroke-width="1.5"/>
  <path d="M9 14h6" stroke-width="1.5"/>
  <path d="M10 16h3" stroke-width="1.5"/>
  
  <!-- Knowledge/idea sparkles -->
  <path d="M15 6l-0.5 1.5L13 7l1.5-0.5L15 6z" fill="currentColor" opacity="0.7"/>
  <circle cx="16.5" cy="9.5" r="0.5" fill="currentColor" opacity="0.6"/>
  <path d="M17 4l-0.3 0.9L16 4.3l0.7-0.3L17 4z" fill="currentColor" opacity="0.8"/>
</svg>
